<?xml version="1.0" encoding="utf-8"?>
<!-- Generator: Adobe Illustrator 22.1.0, SVG Export Plug-In . SVG Version: 6.00 Build 0)  -->
<svg version="1.1" id="Layer_1" xmlns="http://www.w3.org/2000/svg" xmlns:xlink="http://www.w3.org/1999/xlink" x="0px" y="0px"
	 viewBox="0 0 265.4 96.5" style="enable-background:new 0 0 265.4 96.5;" xml:space="preserve">
<style type="text/css">
	.st0{fill:#FFFFFF;}
</style>
<g>
	<path class="st0" d="M175.5,9.4l1.3-0.1V2.4l-2.1,0.1l-0.3,1l-0.4,0l0.1-1.5h5.9l0,1.5l-0.3,0l-0.2-1.1l-2.1-0.1v6.9l1.4,0.1v0.3
		h-3.4V9.4z"/>
	<path class="st0" d="M183.6,9.4l0.9-0.1V2.4l-0.8-0.1V2h2.4v0.4l-0.8,0.1v3.3h4.2V2.4l-0.8-0.1V2h2.3v0.4l-0.8,0.1v6.8l0.9,0.1v0.3
		h-2.5V9.4l0.8-0.1V6.2h-4.2v3.1l0.8,0.1v0.3h-2.4V9.4z"/>
	<path class="st0" d="M195,9.4l0.9-0.1V2.4L195,2.4V2h5.2l0.1,1.4h-0.4l-0.2-1l-3-0.1v3l2,0l0.1-0.8h0.4v2.1h-0.4l-0.1-0.8l-2,0v3.5
		l3.3-0.1l0.5-1.2l0.4,0.1l-0.2,1.6H195V9.4z"/>
</g>
<g>
	<path class="st0" d="M145.3,90.9c0-0.4,0-0.7,0.1-1c0.1-0.3,0.2-0.6,0.4-0.9c0.2-0.3,0.3-0.5,0.6-0.7c0.2-0.2,0.5-0.4,0.7-0.5
		c0.3-0.1,0.5-0.3,0.8-0.3c0.3-0.1,0.6-0.1,0.9-0.1c0.2,0,0.4,0,0.6,0c0.2,0,0.3,0.1,0.5,0.1c0.1,0,0.3,0.1,0.4,0.1
		c0.1,0,0.2,0.1,0.3,0.1l-0.1,1.2h-0.4l-0.2-0.8c-0.2-0.1-0.4-0.2-0.6-0.3s-0.5-0.1-0.8-0.1c-0.2,0-0.5,0-0.7,0.1
		c-0.2,0.1-0.4,0.1-0.6,0.3c-0.2,0.1-0.4,0.3-0.5,0.4c-0.2,0.2-0.3,0.4-0.4,0.6c-0.1,0.2-0.2,0.5-0.3,0.8c-0.1,0.3-0.1,0.6-0.1,0.9
		c0,0.3,0,0.6,0.1,0.8s0.1,0.5,0.2,0.8c0.1,0.2,0.2,0.4,0.4,0.6c0.1,0.2,0.3,0.4,0.5,0.5s0.4,0.2,0.7,0.3c0.2,0.1,0.5,0.1,0.8,0.1
		c0.4,0,0.7,0,0.9-0.1s0.5-0.2,0.6-0.3l0.2-0.7c0,0,0.1,0,0.1,0c0.1,0,0.1,0,0.1,0v1.2c-0.1,0-0.2,0-0.3,0.1S150,94,149.9,94
		c-0.2,0-0.4,0.1-0.6,0.1s-0.5,0.1-0.8,0.1c-0.5,0-0.9-0.1-1.2-0.2s-0.7-0.4-1-0.7s-0.5-0.6-0.7-1C145.4,91.9,145.3,91.4,145.3,90.9
		z"/>
	<path class="st0" d="M153.6,93.8l0.6-0.1l2.3-6.4h0.5l2.3,6.4l0.7,0.1v0.3H158v-0.3l0.7-0.1l-0.6-1.6h-2.8l-0.5,1.6l0.8,0.1v0.3h-2
		V93.8z M158,91.7l-0.9-2.7l-0.3-1l-1.3,3.7H158z"/>
	<path class="st0" d="M163.1,93.8l0.8-0.1v-5.9l-0.7-0.1v-0.4h1.4l3.1,5l0.6,1.2v-5.8l-0.8-0.1v-0.4h2v0.4l-0.8,0.1v6.3h-0.7
		l-3.1-4.9l-0.6-1.2c0,0.2,0,0.5,0,0.8s0,0.6,0,1s0,0.7,0,1.1c0,0.4,0,0.7,0,1.1s0,0.7,0,1s0,0.6,0,0.8l0.9,0.1v0.3h-2.1V93.8z"/>
	<path class="st0" d="M173.7,93.8l1.1-0.1v-6l-1.8,0.1l-0.3,0.9l-0.3,0l0.1-1.3h5.2l0,1.3l-0.3,0l-0.2-0.9l-1.8-0.1v6l1.2,0.1v0.3
		h-3V93.8z"/>
	<path class="st0" d="M180.9,93.8l0.8-0.1v-6l-0.8-0.1v-0.3h4.5l0.1,1.2h-0.4l-0.2-0.8l-2.7,0v2.6l1.8,0l0.1-0.7h0.3v1.8h-0.3
		l-0.1-0.7l-1.8,0v3l2.9-0.1l0.4-1l0.3,0.1l-0.2,1.4h-4.8V93.8z"/>
	<path class="st0" d="M189,93.8l0.9-0.1v-5.9l-0.8-0.1v-0.4h1.1c0.2,0,0.3,0,0.6,0c0.2,0,0.5,0,0.8,0c0.3,0,0.6,0,0.9,0.1
		c0.3,0.1,0.5,0.2,0.7,0.3s0.4,0.3,0.5,0.6c0.1,0.2,0.2,0.5,0.2,0.9c0,0.2,0,0.4-0.1,0.6c-0.1,0.2-0.2,0.4-0.3,0.5
		c-0.1,0.2-0.3,0.3-0.5,0.4c-0.2,0.1-0.4,0.2-0.6,0.3c0,0,0,0,0,0c0.1,0,0.2,0.1,0.3,0.2c0.1,0.1,0.2,0.2,0.3,0.3
		c0.1,0.1,0.2,0.3,0.3,0.4c0.1,0.2,0.2,0.3,0.3,0.5c0.1,0.2,0.2,0.3,0.3,0.5s0.2,0.3,0.2,0.4s0.1,0.2,0.2,0.3
		c0.1,0.1,0.1,0.1,0.2,0.1l0.5,0.1v0.3h-1.1c0,0-0.1,0-0.2-0.1s-0.1-0.2-0.2-0.3c-0.1-0.1-0.2-0.3-0.2-0.5c-0.1-0.2-0.2-0.4-0.3-0.6
		c-0.1-0.2-0.2-0.4-0.3-0.6c-0.1-0.2-0.2-0.3-0.3-0.5c-0.1-0.1-0.2-0.2-0.3-0.3s-0.2-0.1-0.4-0.1l0,0c-0.2,0-0.3,0-0.5,0
		c-0.2,0-0.3,0-0.5,0v2.6l0.9,0.1v0.3H189V93.8z M190.6,90.7c0,0,0.1,0,0.2,0c0.1,0,0.2,0,0.3,0c0.1,0,0.2,0,0.3,0
		c0.1,0,0.2,0,0.2,0c0.3,0,0.5,0,0.7-0.1s0.4-0.2,0.5-0.3c0.1-0.1,0.2-0.3,0.3-0.5c0.1-0.2,0.1-0.4,0.1-0.7c0-0.2,0-0.5-0.1-0.7
		c-0.1-0.2-0.2-0.4-0.3-0.5c-0.1-0.1-0.3-0.2-0.5-0.3s-0.5-0.1-0.8-0.1c-0.1,0-0.1,0-0.2,0c-0.1,0-0.2,0-0.2,0c-0.1,0-0.2,0-0.2,0
		s-0.1,0-0.2,0V90.7z"/>
	<path class="st0" d="M197.8,93.8l0.8-0.1v-6l-0.8-0.1v-0.3h1.1c0.1,0,0.3,0,0.4,0s0.3,0,0.4,0c0.1,0,0.3,0,0.4,0c0.1,0,0.3,0,0.5,0
		c0.3,0,0.6,0,0.9,0.1c0.3,0.1,0.5,0.2,0.7,0.3c0.2,0.1,0.3,0.3,0.4,0.5c0.1,0.2,0.1,0.4,0.1,0.6c0,0.2,0,0.4-0.1,0.6
		c-0.1,0.2-0.1,0.3-0.2,0.5c-0.1,0.2-0.2,0.3-0.4,0.4c-0.2,0.1-0.4,0.2-0.6,0.2c0.2,0,0.5,0,0.7,0.1c0.2,0.1,0.4,0.2,0.6,0.3
		c0.2,0.1,0.3,0.3,0.4,0.5c0.1,0.2,0.1,0.4,0.1,0.7c0,0.3-0.1,0.6-0.2,0.8c-0.1,0.3-0.3,0.5-0.5,0.7c-0.2,0.2-0.5,0.3-0.9,0.4
		c-0.4,0.1-0.8,0.2-1.2,0.2c-0.1,0-0.3,0-0.4,0s-0.3,0-0.4,0c-0.1,0-0.2,0-0.4,0c-0.1,0-0.2,0-0.3,0h-1.1V93.8z M199.2,90.3
		c0.1,0,0.2,0,0.3,0c0.1,0,0.2,0,0.4,0s0.2,0,0.4,0c0.1,0,0.2,0,0.3,0c0.2,0,0.4,0,0.6-0.1c0.2-0.1,0.4-0.1,0.5-0.3
		c0.1-0.1,0.2-0.3,0.3-0.5c0.1-0.2,0.1-0.4,0.1-0.7c0-0.2,0-0.4-0.1-0.6c-0.1-0.2-0.2-0.3-0.4-0.4c-0.2-0.1-0.3-0.2-0.5-0.2
		s-0.4-0.1-0.6-0.1c-0.1,0-0.2,0-0.3,0c-0.1,0-0.2,0-0.3,0c-0.1,0-0.2,0-0.3,0c-0.1,0-0.2,0-0.2,0L199.2,90.3z M199.2,93.7
		c0.1,0,0.1,0,0.2,0.1c0.1,0,0.2,0,0.3,0s0.2,0,0.4,0c0.1,0,0.2,0,0.3,0c0.2,0,0.5,0,0.7-0.1s0.5-0.1,0.6-0.3s0.3-0.3,0.5-0.5
		c0.1-0.2,0.2-0.5,0.2-0.8c0-0.3,0-0.5-0.1-0.7c-0.1-0.2-0.2-0.3-0.4-0.5c-0.2-0.1-0.3-0.2-0.6-0.2s-0.5-0.1-0.7-0.1
		c-0.1,0-0.2,0-0.4,0s-0.3,0-0.4,0s-0.3,0-0.4,0s-0.2,0-0.3,0V93.7z"/>
	<path class="st0" d="M206.9,87.7l-0.7-0.1v-0.3h2.1v0.3l-0.8,0.1v3.6c0,0.5,0.1,0.9,0.2,1.2s0.2,0.6,0.4,0.8
		c0.2,0.2,0.4,0.3,0.7,0.4c0.3,0.1,0.5,0.1,0.8,0.1c0.3,0,0.6-0.1,0.8-0.2c0.2-0.1,0.4-0.3,0.6-0.5s0.3-0.5,0.3-0.8
		c0.1-0.3,0.1-0.7,0.1-1.1v-3.5l-0.8-0.1v-0.3h1.9v0.3l-0.7,0.1v3.5c0,0.5-0.1,1-0.2,1.4c-0.1,0.4-0.3,0.7-0.5,0.9
		c-0.2,0.2-0.5,0.4-0.8,0.5c-0.3,0.1-0.6,0.2-1,0.2c-0.5,0-0.9-0.1-1.2-0.2c-0.3-0.1-0.6-0.3-0.8-0.5s-0.4-0.6-0.5-0.9
		s-0.1-0.8-0.1-1.3V87.7z"/>
	<path class="st0" d="M215.8,93.8l0.9-0.1v-5.9l-0.8-0.1v-0.4h1.1c0.2,0,0.3,0,0.6,0c0.2,0,0.5,0,0.8,0c0.3,0,0.6,0,0.9,0.1
		c0.3,0.1,0.5,0.2,0.7,0.3s0.4,0.3,0.5,0.6c0.1,0.2,0.2,0.5,0.2,0.9c0,0.2,0,0.4-0.1,0.6c-0.1,0.2-0.2,0.4-0.3,0.5s-0.3,0.3-0.5,0.4
		s-0.4,0.2-0.6,0.3c0,0,0,0,0,0c0.1,0,0.2,0.1,0.3,0.2c0.1,0.1,0.2,0.2,0.3,0.3s0.2,0.3,0.3,0.4c0.1,0.2,0.2,0.3,0.3,0.5
		c0.1,0.2,0.2,0.3,0.3,0.5c0.1,0.1,0.2,0.3,0.2,0.4c0.1,0.1,0.1,0.2,0.2,0.3c0.1,0.1,0.1,0.1,0.2,0.1l0.5,0.1v0.3h-1.1
		c0,0-0.1,0-0.2-0.1c-0.1-0.1-0.1-0.2-0.2-0.3c-0.1-0.1-0.2-0.3-0.2-0.5s-0.2-0.4-0.3-0.6c-0.1-0.2-0.2-0.4-0.3-0.6
		c-0.1-0.2-0.2-0.3-0.3-0.5c-0.1-0.1-0.2-0.2-0.3-0.3s-0.2-0.1-0.4-0.1l0,0c-0.2,0-0.3,0-0.5,0s-0.3,0-0.5,0v2.6l0.9,0.1v0.3h-2.5
		V93.8z M217.3,90.7c0,0,0.1,0,0.2,0c0.1,0,0.2,0,0.3,0c0.1,0,0.2,0,0.3,0c0.1,0,0.2,0,0.2,0c0.3,0,0.5,0,0.7-0.1s0.4-0.2,0.5-0.3
		c0.1-0.1,0.2-0.3,0.3-0.5c0.1-0.2,0.1-0.4,0.1-0.7c0-0.2,0-0.5-0.1-0.7s-0.2-0.4-0.3-0.5c-0.1-0.1-0.3-0.2-0.5-0.3
		s-0.5-0.1-0.8-0.1c-0.1,0-0.1,0-0.2,0c-0.1,0-0.2,0-0.2,0c-0.1,0-0.2,0-0.2,0s-0.1,0-0.2,0V90.7z"/>
	<path class="st0" d="M225.9,93.8l0.9-0.1v-2.4l-2.1-3.6l-0.5-0.1v-0.3h2v0.3l-0.7,0.1l1.5,2.8l0.2,0.5l0.2-0.5l1.4-2.8l-0.7-0.1
		v-0.3h1.9v0.3l-0.6,0.1l-1.9,3.6v2.4l0.9,0.1v0.3h-2.4V93.8z"/>
</g>
<g>
	<g>
		<g>
			<g>
				<path class="st0" d="M121.9,44.1v15.3l4.4,0.4v2.2h-12.9v-2.2l4.3-0.5V27.3l-4.1-0.6v-2.2h12.7v2.2l-4.4,0.5v14.2V44.1z"/>
			</g>
		</g>
		<g>
			<g>
				<path class="st0" d="M126.1,41.5h15V27.3l-4.2-0.6v-2.2h12.5v2.2l-4.1,0.6v32.1l4.1,0.5v2.2H137v-2.2l4.2-0.5V44.1h-15"/>
			</g>
		</g>
	</g>
	<g>
		<g>
			<path class="st0" d="M157.5,27.4l-3.8-0.6v-2.3h12.4v2.3l-4.3,0.6v18.9c0,4.9,0.9,8.3,2.7,10.3c1.8,2,4.3,3,7.5,3
				c3.2,0,5.7-1.1,7.3-3.3c1.6-2.2,2.5-5.4,2.5-9.7V27.4l-4.2-0.6v-2.3h11.2v2.3l-3.9,0.6v19.1c0,3.5-0.6,6.4-1.7,8.7
				s-2.7,4.1-4.7,5.2c-2,1.1-4.3,1.7-6.9,1.7c-3.3,0-5.9-0.6-8-1.8c-2.1-1.2-3.6-3-4.6-5.3c-1-2.4-1.5-5.4-1.5-9.1V27.4z"/>
			<path class="st0" d="M194.6,33.4c1.7-2.9,3.9-5.1,6.8-6.6c2.9-1.5,6.1-2.3,9.6-2.3c2.2,0,4.2,0.2,6,0.5c1.8,0.3,3.6,0.7,5.4,1.1
				l-0.4,8h-2.6l-1.1-5.5c-0.6-0.4-1.5-0.8-2.7-1.1c-1.3-0.3-2.9-0.5-5-0.5c-2.6,0-5,0.6-7.1,1.8c-2.1,1.2-3.7,3-4.9,5.3
				c-1.2,2.4-1.8,5.2-1.8,8.5c0,3,0.5,5.8,1.4,8.4c1,2.6,2.4,4.7,4.4,6.3c1.9,1.6,4.3,2.4,7.1,2.4c1.8,0,3.5-0.2,5.1-0.6
				c1.6-0.4,2.8-1,3.8-1.7V45.9l-7-0.5v-2.7H226v2.7l-3.1,0.5v13.7c-0.4,0-0.9,0.1-1.5,0.2c-0.5,0.1-1.2,0.3-2.1,0.6
				c-1.7,0.5-3.3,1-4.8,1.3c-1.5,0.3-3.2,0.5-5,0.5c-3.6,0-6.7-0.8-9.3-2.4c-2.6-1.6-4.6-3.8-6-6.5c-1.4-2.8-2.1-5.9-2.1-9.4
				C192.1,39.8,193,36.3,194.6,33.4z"/>
			<path class="st0" d="M231.1,33.5c1.5-2.9,3.5-5.1,6.1-6.7c2.6-1.6,5.4-2.3,8.5-2.3c3.4,0,6.2,0.8,8.6,2.3
				c2.4,1.5,4.2,3.6,5.4,6.4c1.2,2.8,1.8,6,1.8,9.7c0,3.8-0.7,7.2-2.2,10.1c-1.5,2.9-3.5,5.2-6.1,6.7c-2.6,1.6-5.5,2.4-8.6,2.4
				c-3.3,0-6.1-0.8-8.4-2.3c-2.4-1.6-4.1-3.7-5.4-6.5c-1.2-2.8-1.8-6-1.8-9.7C228.8,39.7,229.6,36.4,231.1,33.5z M234.8,51.9
				c0.9,2.5,2.2,4.4,4,5.8s3.8,2.1,6.3,2.1c2.3,0,4.4-0.6,6.1-1.9c1.8-1.3,3.1-3.2,4.1-5.7c1-2.5,1.5-5.6,1.5-9.2
				c0-3.2-0.5-5.9-1.4-8.4c-0.9-2.4-2.2-4.3-4-5.7c-1.7-1.3-3.8-2-6.2-2c-2.4,0-4.4,0.6-6.2,1.9c-1.8,1.2-3.1,3.1-4.1,5.6
				c-1,2.5-1.5,5.5-1.5,9.2C233.5,46.6,233.9,49.4,234.8,51.9z"/>
		</g>
	</g>
</g>
<g>
	<g>
		<g>
			<path class="st0" d="M63.4,5v86.7H5.6V5H63.4 M66.4,2H2.6v92.7h63.8V2L66.4,2z"/>
		</g>
	</g>
	<circle class="st0" cx="53.7" cy="48" r="2.1"/>
	<g>
		<g>
			<g>
				<path class="st0" d="M27.1,49v11.7c0,0.1,0.1,0.2,0.2,0.2l3,0.3c0.1,0,0.2,0.1,0.2,0.3v1.5h-10v-1.5c0-0.1,0.1-0.2,0.2-0.3
					l2.9-0.3c0.1,0,0.2-0.1,0.2-0.2V36.2c0-0.1-0.1-0.2-0.2-0.2l-2.8-0.4c-0.1,0-0.2-0.1-0.2-0.3v-1.5h9.9v1.5
					c0,0.1-0.1,0.2-0.2,0.3l-3,0.4c-0.1,0-0.2,0.1-0.2,0.2v10.8V49z"/>
			</g>
		</g>
		<g>
			<g>
				<path class="st0" d="M30.4,46.9h11.4c0.1,0,0.2-0.1,0.2-0.2V36.1c0-0.1-0.1-0.2-0.2-0.2L39,35.5c-0.1,0-0.2-0.1-0.2-0.3v-1.5
					h9.7v1.5c0,0.1-0.1,0.2-0.2,0.3l-2.8,0.4c-0.1,0-0.2,0.1-0.2,0.2v24.5c0,0.1,0.1,0.2,0.2,0.2l2.8,0.3c0.1,0,0.2,0.1,0.2,0.3v1.5
					h-9.7v-1.5c0-0.1,0.1-0.2,0.2-0.3l2.8-0.3c0.1,0,0.2-0.1,0.2-0.2V49.3c0-0.1-0.1-0.2-0.2-0.2H30.4"/>
			</g>
		</g>
	</g>
</g>
</svg>
